
<svg width="745" height="217" viewBox="0 0 745 217" fill="none" xmlns="http://www.w3.org/2000/svg">
<path d="M211.593 0L209.828 3.83028L168.269 99.7586L164.428 108.692H178.352L180.113 104.854L215.743 22.5462L251.395 104.881L253.163 108.718H267.064L263.212 99.7586L221.66 3.83028L219.907 0H211.593Z" fill="#17365E"/>
<path d="M274.992 25.0105H285.071L284.944 29.9873L284.821 61.843C284.822 64.3944 285.651 66.8766 287.185 68.9154C288.54 70.7593 290.325 72.2445 292.384 73.2421C294.444 74.2398 296.715 74.7198 299.002 74.6404C301.718 74.6455 304.385 73.9135 306.718 72.5224C308.653 71.492 310.267 69.9487 311.383 68.0616C312.499 66.1746 313.074 64.0167 313.045 61.8244V29.8644L313.168 25.0254H323.243L323.12 30.0021L322.997 61.8579C323.039 67.06 321.187 72.0995 317.787 76.0363C315.534 78.8247 312.665 81.0518 309.405 82.542C306.145 84.0322 302.584 84.7448 299.002 84.6237C293.353 84.7059 287.852 82.8142 283.448 79.2747C280.742 77.2578 278.553 74.6273 277.06 71.5995C275.568 68.5717 274.816 65.2331 274.865 61.8579V29.8644L274.992 25.0105Z" fill="#17365E"/>
<path d="M397.41 33.3484C399.138 31.0347 401.324 29.1013 403.831 27.6685C406.338 26.2358 409.114 25.3342 411.984 25.02C414.855 24.7058 417.759 24.9856 420.517 25.842C423.275 26.6985 425.827 28.1132 428.015 29.9983C430.757 32.2843 432.943 35.1637 434.409 38.419C435.875 41.6743 436.581 45.2202 436.475 48.7887V79.6469L436.598 84.7464H426.768L426.645 79.7697L426.523 48.7887C426.524 46.1444 425.886 43.539 424.662 41.1951C423.916 39.6993 422.852 38.3849 421.544 37.3443C420.236 36.3038 418.716 35.5623 417.091 35.172C415.466 34.7818 413.775 34.7522 412.138 35.0854C410.5 35.4185 408.955 36.1064 407.612 37.1006C405.813 38.4535 404.373 40.2274 403.42 42.2667C402.467 44.3059 402.028 46.548 402.144 48.7961V79.6543L402.267 84.7539H392.434L392.311 79.7771L392.184 53.7729V48.7775C392.187 46.1331 391.548 43.5275 390.323 41.184C389.578 39.6881 388.513 38.3737 387.206 37.3331C385.898 36.2926 384.378 35.5511 382.753 35.1609C381.128 34.7706 379.437 34.741 377.799 35.0742C376.161 35.4074 374.617 36.0952 373.273 37.0894C371.474 38.4428 370.034 40.2167 369.08 42.2556C368.126 44.2946 367.685 46.5365 367.798 48.785V84.6273H357.846V24.8876H367.798V28.8667C371.361 26.326 375.616 24.9373 379.991 24.8876C383.324 24.9564 386.598 25.7752 389.571 27.2831C392.544 28.791 395.139 30.9494 397.164 33.5978C397.246 33.5978 397.324 33.5159 397.41 33.3484" fill="#17365E"/>
<path d="M519.329 72.9171C516.733 76.6217 513.262 79.6274 509.224 81.6672C505.187 83.7069 500.708 84.7174 496.186 84.6089C489.504 84.6228 483.08 82.0355 478.272 77.395C475.17 74.5159 472.721 71.005 471.09 67.099C469.459 63.193 468.685 58.9828 468.819 54.7521C468.686 47.4019 471.195 40.2482 475.89 34.5919C478.307 31.5355 481.39 29.0722 484.905 27.3903C488.419 25.7084 492.271 24.8524 496.167 24.8878C502.82 24.8585 509.216 27.4501 513.973 32.1017C517.108 34.963 519.587 38.4688 521.24 42.3785C522.893 46.2882 523.681 50.5093 523.549 54.7521V59.7251H479.259C479.832 62.2054 480.84 64.5645 482.236 66.6933C483.649 69.1322 485.682 71.1536 488.129 72.5521C490.576 73.9506 493.349 74.6763 496.167 74.6554C499.135 74.6894 502.067 74.0055 504.714 72.662C507.36 71.3184 509.643 69.355 511.368 66.939L519.329 72.9171ZM513.601 49.7679C513.398 46.8523 512.217 44.0905 510.251 41.9286C508.614 39.7425 506.492 37.9659 504.052 36.7387C501.612 35.5116 498.921 34.8671 496.19 34.8562C493.627 34.8516 491.104 35.4916 488.854 36.7174C486.369 38.0232 484.215 39.8782 482.555 42.1415C480.895 44.4048 479.773 47.0168 479.273 49.779L513.601 49.7679Z" fill="#17365E"/>
<path d="M603.306 84.7353H593.477L593.354 79.7586L593.231 50.6462C593.255 47.5027 592.436 44.4101 590.86 41.6902C589.792 39.6168 588.17 37.8797 586.175 36.6715C584.18 35.4633 581.889 34.831 579.557 34.8449C576.746 34.8388 574.02 35.8055 571.841 37.5808C569.881 39.1283 568.316 41.1203 567.277 43.3922C566.239 45.6641 565.755 48.1506 565.868 50.6462V84.6274H555.915V24.8876H565.868V29.6187C569.795 26.5956 574.601 24.9348 579.557 24.8876C585.037 24.8589 590.324 26.9041 594.359 30.6126C597.247 33.0687 599.542 36.147 601.072 39.6165C602.602 43.086 603.326 46.8568 603.191 50.6462V79.6357L603.306 84.7353Z" fill="#17365E"/>
<path d="M651.323 67.0654C651.405 71.959 654.433 74.4902 660.408 74.6589H665.384V84.6125H660.419C658.199 84.6249 655.986 84.375 653.824 83.868C645.529 81.9646 641.382 76.4072 641.382 67.1957V34.8411H633.052V24.8876H641.382V11.8222L641.508 6.98315H651.583L651.461 11.9636V24.8876H665.396V34.8411H651.461L651.323 67.0654Z" fill="#17365E"/>
<path d="M697.601 34.465C699.988 31.4457 703.034 29.0128 706.506 27.3526C709.978 25.6925 713.784 24.8493 717.633 24.8875C724.094 24.8839 730.316 27.3285 735.047 31.7291V24.8875H745V84.6272H735.047V77.767C730.29 82.1254 724.084 84.5633 717.633 84.6086C710.984 84.6382 704.591 82.0448 699.842 77.391C696.706 74.5322 694.226 71.0285 692.573 67.1207C690.919 63.2128 690.131 58.9932 690.262 54.7518C690.13 47.3169 692.743 40.0943 697.601 34.465ZM703.824 66.8196C705.239 69.2201 707.259 71.2073 709.682 72.5829C712.105 73.9585 714.846 74.6743 717.633 74.6588C721.489 74.6726 725.213 73.2516 728.08 70.6722C730.356 68.7067 732.163 66.2567 733.368 63.5019C734.574 60.747 735.148 57.7573 735.047 54.7518C735.079 50.4567 733.822 46.2509 731.441 42.6765C730.023 40.2802 728.002 38.2974 725.579 36.9258C723.157 35.5542 720.417 34.8418 717.633 34.8596C713.774 34.843 710.047 36.2627 707.178 38.8425C704.902 40.8093 703.095 43.2606 701.889 46.0167C700.683 48.7728 700.11 51.7638 700.21 54.7704C700.178 59.0638 701.436 63.268 703.821 66.8382" fill="#17365E"/>
<path d="M59.7606 114.428C59.7591 120.278 58.0232 125.996 54.7723 130.86C51.5214 135.723 46.9016 139.513 41.497 141.75C36.0924 143.987 30.1458 144.572 24.4092 143.429C18.6727 142.286 13.4037 139.468 9.26871 135.33C5.13369 131.193 2.31833 125.922 1.17864 120.184C0.0389517 114.446 0.62612 108.499 2.8659 103.095C5.10567 97.6911 8.89746 93.0727 13.7618 89.8239C18.6261 86.5751 24.3444 84.8418 30.1937 84.8433C38.0355 84.8512 45.5536 87.9712 51.0972 93.5182C56.6408 99.0652 59.7567 106.586 59.7606 114.428M7.71698 114.428C7.71919 118.872 9.03858 123.215 11.5084 126.909C13.9782 130.603 17.4875 133.481 21.5928 135.181C25.698 136.88 30.2149 137.324 34.5725 136.457C38.9301 135.589 42.9327 133.449 46.0744 130.307C49.2161 127.165 51.3558 123.162 52.2232 118.804C53.0905 114.446 52.6465 109.929 50.9472 105.823C49.248 101.717 46.3698 98.2074 42.6764 95.7373C38.9831 93.2672 34.6404 91.9477 30.1974 91.9455C24.2367 91.9504 18.5216 94.3207 14.3068 98.536C10.092 102.751 7.72191 108.467 7.71698 114.428" fill="#FFAF00"/>
<path d="M152.198 119.249V127.289H134.333C136.437 128.856 138.436 130.558 140.318 132.385C144.963 136.888 148.636 142.295 151.11 148.272C153.584 154.25 154.807 160.672 154.703 167.14C154.801 173.596 153.575 180.003 151.1 185.966C148.626 191.929 144.955 197.322 140.314 201.81C135.825 206.45 130.433 210.12 124.471 212.594C118.509 215.069 112.103 216.295 105.648 216.197C99.1809 216.3 92.761 215.077 86.7846 212.602C80.8083 210.128 75.4024 206.455 70.9004 201.81C66.2619 197.321 62.5923 191.929 60.1182 185.967C57.6441 180.005 56.4178 173.599 56.5152 167.144C56.4122 160.675 57.6355 154.254 60.1096 148.277C62.5837 142.299 66.2561 136.892 70.9004 132.389C72.7835 130.563 74.7827 128.861 76.8852 127.293H64.4689V119.249H152.198ZM113.602 127.289H97.6982C88.5071 129.163 80.2438 134.151 74.3033 141.411C68.3628 148.671 65.1087 157.759 65.0905 167.14C65.0905 177.901 69.3647 188.221 76.9728 195.83C84.581 203.439 94.8999 207.714 105.659 207.714C110.982 207.711 116.251 206.66 121.167 204.618C126.082 202.577 130.547 199.587 134.306 195.819C138.065 192.05 141.045 187.578 143.074 182.657C145.103 177.736 146.142 172.463 146.132 167.14C146.109 157.772 142.863 148.697 136.939 141.441C131.015 134.184 122.775 129.187 113.602 127.289" fill="#FFAF00"/>
<path d="M735.483 140.637V184.062H691.192V140.637H681.686V192.117H744.996V140.637H735.483Z" fill="#FFAF00"/>
<path d="M717.365 119.193H709.325V164.069H717.365V119.193Z" fill="#FFAF00"/>
<path d="M170.235 140.7V136.022H179.584V142.454C184.053 138.275 189.955 135.972 196.072 136.022C202.279 136.013 208.239 138.448 212.665 142.8C215.609 145.487 217.937 148.779 219.49 152.45C221.043 156.121 221.783 160.085 221.661 164.069C221.785 171.052 219.331 177.834 214.768 183.12C212.527 185.957 209.667 188.242 206.406 189.802C203.145 191.361 199.571 192.153 195.957 192.117C189.881 192.124 184.028 189.826 179.58 185.685V216.208H170.235V140.7ZM182.971 175.408C184.301 177.663 186.199 179.529 188.476 180.821C190.752 182.113 193.328 182.785 195.946 182.77C199.566 182.79 203.064 181.463 205.76 179.048C207.898 177.2 209.594 174.898 210.727 172.309C211.859 169.721 212.398 166.912 212.304 164.088C212.333 160.056 211.153 156.108 208.917 152.753C207.608 150.507 205.733 148.643 203.48 147.348C201.226 146.053 198.672 145.372 196.072 145.372C192.474 145.378 188.995 146.663 186.258 148.998C184.123 150.879 182.423 153.201 181.273 155.804C180.123 158.407 179.552 161.228 179.599 164.073C179.569 168.105 180.749 172.053 182.986 175.408" fill="#17365E"/>
<path d="M240.814 145.019C243.054 142.183 245.915 139.897 249.175 138.338C252.436 136.778 256.01 135.986 259.624 136.022C265.7 136.015 271.553 138.314 276.001 142.454V136.022H285.35V192.121H275.986V185.689C271.514 189.79 265.677 192.083 259.609 192.121C253.365 192.149 247.362 189.713 242.902 185.343C239.957 182.656 237.628 179.364 236.076 175.693C234.523 172.021 233.783 168.058 233.906 164.073C233.782 157.091 236.236 150.309 240.799 145.022M246.642 175.408C247.971 177.662 249.867 179.529 252.143 180.821C254.418 182.113 256.993 182.785 259.609 182.77C263.23 182.79 266.729 181.463 269.428 179.048C271.565 177.2 273.262 174.898 274.394 172.309C275.526 169.721 276.065 166.912 275.971 164.088C276 160.056 274.82 156.108 272.584 152.754C271.254 150.498 269.356 148.632 267.079 147.34C264.803 146.048 262.227 145.376 259.609 145.391C255.99 145.373 252.492 146.699 249.795 149.113C247.657 150.961 245.96 153.263 244.828 155.852C243.696 158.44 243.157 161.249 243.251 164.073C243.222 168.105 244.401 172.053 246.638 175.408" fill="#17365E"/>
<path d="M348.079 181.363C345.816 184.752 342.734 187.514 339.118 189.394C335.502 191.273 331.47 192.208 327.397 192.113C321.318 192.112 315.484 189.72 311.154 185.454C308.232 182.73 305.928 179.412 304.397 175.722C302.865 172.033 302.143 168.058 302.277 164.065C302.144 157.124 304.506 150.365 308.936 145.018C311.111 142.197 313.909 139.917 317.112 138.356C320.314 136.795 323.834 135.996 327.397 136.021C331.426 135.836 335.438 136.658 339.07 138.413C342.702 140.168 345.839 142.8 348.198 146.072L340.487 151.447C338.994 149.411 337.012 147.785 334.724 146.719C332.435 145.653 329.915 145.182 327.397 145.35C323.881 145.323 320.491 146.657 317.935 149.072C315.832 150.941 314.174 153.259 313.085 155.853C311.996 158.448 311.503 161.255 311.642 164.065C311.601 167.977 312.653 171.823 314.679 175.169C315.907 177.477 317.743 179.405 319.988 180.744C322.233 182.083 324.801 182.782 327.415 182.767C329.993 182.747 332.53 182.123 334.823 180.946C337.116 179.769 339.102 178.071 340.621 175.988L348.079 181.363Z" fill="#17365E"/>
<path d="M364.206 128.908V119.547H373.668V128.908H364.206ZM364.206 136.037H373.556V192.121H364.206V136.022V136.037Z" fill="#17365E"/>
<path d="M435.016 181.133C432.58 184.614 429.321 187.439 425.53 189.355C421.738 191.272 417.531 192.221 413.284 192.117C407.007 192.132 400.971 189.701 396.457 185.339C393.543 182.635 391.243 179.338 389.711 175.669C388.18 172.001 387.453 168.047 387.58 164.073C387.458 157.169 389.82 150.451 394.235 145.141C396.505 142.27 399.402 139.956 402.703 138.376C406.005 136.796 409.624 135.992 413.284 136.025C419.529 135.999 425.533 138.434 429.995 142.804C432.939 145.491 435.267 148.783 436.819 152.454C438.372 156.126 439.113 160.089 438.991 164.073V168.745H397.391C397.934 171.076 398.884 173.292 400.197 175.292C401.525 177.583 403.435 179.481 405.733 180.795C408.032 182.108 410.637 182.79 413.284 182.771C416.067 182.8 418.817 182.157 421.299 180.895C423.78 179.634 425.921 177.793 427.539 175.527L435.016 181.133ZM429.641 159.398C429.449 156.659 428.338 154.065 426.489 152.035C424.952 149.98 422.96 148.309 420.669 147.154C418.378 145.998 415.85 145.39 413.284 145.376C410.876 145.374 408.505 145.977 406.391 147.129C404.054 148.357 402.029 150.101 400.469 152.23C398.909 154.359 397.855 156.815 397.387 159.413L429.641 159.398Z" fill="#17365E"/>
<path d="M500.455 192.251H491.224L491.105 187.576L490.99 160.228C491.008 157.276 490.237 154.373 488.757 151.819C487.752 149.87 486.226 148.238 484.35 147.102C482.474 145.967 480.32 145.373 478.127 145.387C475.488 145.383 472.928 146.293 470.884 147.963C469.042 149.418 467.572 151.291 466.596 153.427C465.621 155.563 465.168 157.901 465.275 160.247V192.155H455.933V136.022H465.283V140.462C468.972 137.626 473.485 136.067 478.138 136.022C483.286 135.996 488.253 137.917 492.043 141.401C494.755 143.707 496.91 146.598 498.346 149.856C499.782 153.114 500.462 156.655 500.336 160.213V187.446L500.455 192.251Z" fill="#17365E"/>
<path d="M532.121 175.639C532.198 180.237 535.04 182.613 540.648 182.767H545.326V192.121H540.648C538.564 192.129 536.487 191.894 534.458 191.421C526.669 189.627 522.774 184.406 522.771 175.758V145.365H514.955V136.022H522.771V123.738L522.89 119.182H532.359L532.24 123.857V136.011H545.326V145.357H532.24L532.121 175.639Z" fill="#17365E"/>
<path d="M602.696 181.133C600.26 184.614 597.001 187.439 593.21 189.355C589.418 191.272 585.211 192.221 580.964 192.117C574.687 192.132 568.651 189.701 564.137 185.339C561.223 182.635 558.923 179.338 557.391 175.669C555.86 172.001 555.133 168.047 555.26 164.073C555.139 157.169 557.5 150.451 561.915 145.141C564.185 142.27 567.082 139.956 570.383 138.376C573.685 136.796 577.304 135.992 580.964 136.025C587.209 135.999 593.213 138.434 597.675 142.804C600.619 145.491 602.947 148.783 604.499 152.454C606.052 156.126 606.793 160.089 606.671 164.073V168.745H565.071C565.614 171.076 566.564 173.292 567.877 175.292C569.205 177.583 571.115 179.481 573.413 180.795C575.712 182.108 578.317 182.79 580.964 182.771C583.747 182.8 586.497 182.157 588.979 180.895C591.46 179.634 593.601 177.793 595.219 175.527L602.696 181.133ZM597.322 159.398C597.129 156.659 596.018 154.065 594.169 152.035C592.632 149.98 590.64 148.309 588.349 147.154C586.058 145.998 583.53 145.39 580.964 145.376C578.556 145.374 576.186 145.977 574.071 147.129C571.734 148.357 569.709 150.101 568.149 152.23C566.589 154.359 565.535 156.815 565.067 159.413L597.322 159.398Z" fill="#17365E"/>
<path d="M651.308 152.266C651.292 151.057 650.835 149.895 650.024 148.998C648.849 147.716 647.394 146.722 645.773 146.093C644.151 145.464 642.407 145.218 640.675 145.372C639.051 145.37 637.436 145.606 635.881 146.072C631.988 147.313 630.04 149.377 630.037 152.266C630.061 152.946 630.307 153.6 630.737 154.127C633.937 156.473 637.602 158.106 641.486 158.918C645.384 160.091 648.267 161.065 650.136 161.84C658.393 165.19 662.487 169.865 662.418 175.865C662.354 179.15 661.109 182.301 658.912 184.743C656.62 187.261 653.79 189.23 650.633 190.504C647.476 191.779 644.072 192.326 640.675 192.106C635.506 192.23 630.418 190.804 626.066 188.011C623.938 186.764 622.164 184.991 620.916 182.862C619.668 180.734 618.985 178.321 618.935 175.854H628.284C628.309 177.087 628.814 178.261 629.691 179.126C631.166 180.466 632.906 181.481 634.798 182.105C636.69 182.729 638.692 182.948 640.675 182.748C642.489 182.747 644.295 182.512 646.049 182.048C650.724 180.879 653.061 178.815 653.061 175.854C653.034 175.227 652.831 174.62 652.477 174.101C649.315 171.784 645.684 170.188 641.839 169.426C638.023 168.257 635.141 167.283 633.193 166.504C624.936 163.156 620.768 158.404 620.692 152.247C620.738 148.853 621.979 145.584 624.198 143.016C626.223 140.661 628.763 138.804 631.621 137.588C634.478 136.372 637.577 135.83 640.678 136.003C645.295 135.917 649.826 137.264 653.645 139.859C655.771 141.157 657.53 142.975 658.757 145.142C659.983 147.309 660.638 149.753 660.658 152.244L651.308 152.266Z" fill="#17365E"/>
<path d="M152.198 101.553H134.333C136.437 99.9859 138.436 98.2836 140.318 96.4568C144.963 91.9541 148.636 86.547 151.11 80.5693C153.584 74.5916 154.807 68.1701 154.703 61.7014C154.801 55.2466 153.576 48.8403 151.101 42.8779C148.627 36.9155 144.957 31.5237 140.318 27.0352C135.829 22.3958 130.437 18.7255 124.475 16.2511C118.513 13.7767 112.106 12.5506 105.652 12.6484C99.184 12.5448 92.7633 13.7679 86.7864 16.2423C80.8094 18.7168 75.4028 22.39 70.9004 27.0352C66.2619 31.5242 62.5923 36.9162 60.1182 42.8784C57.6441 48.8407 56.4178 55.2468 56.5152 61.7014C56.4122 68.17 57.6355 74.5911 60.1096 80.5687C62.5837 86.5462 66.2561 91.9535 70.9004 96.4568C72.7835 98.2825 74.7827 99.9847 76.8852 101.553H64.4689V109.593H745V101.553H152.198ZM113.602 101.553H97.6982C89.8085 100.045 82.5734 96.146 76.9746 90.3857C73.14 86.6697 70.1076 82.2074 68.0643 77.2739C66.0209 72.3405 65.0101 67.0406 65.0942 61.7014C65.0132 56.3658 66.0255 51.0702 68.0687 46.1408C70.1119 41.2114 73.1428 36.7527 76.9746 33.0394C80.6867 29.2061 85.1448 26.1742 90.0738 24.1307C95.0028 22.0872 100.298 21.0753 105.633 21.1577C110.966 21.0704 116.259 22.0801 121.185 24.124C126.112 26.1679 130.565 29.2025 134.27 33.0394C138.091 36.7587 141.111 41.2195 143.147 46.1482C145.182 51.0769 146.189 56.3695 146.106 61.7014C146.19 67.0406 145.179 72.3405 143.135 77.2739C141.092 82.2074 138.06 86.6697 134.225 90.3857C128.65 96.1321 121.447 100.03 113.587 101.553" fill="#FFAF00"/>
</svg>
